<?xml version="1.0" encoding="UTF-8" standalone="no"?>
<!-- Created with Inkscape (http://www.inkscape.org/) -->

<svg
   width="210mm"
   height="297mm"
   viewBox="0 0 210 297"
   version="1.1"
   id="svg1"
   inkscape:version="1.3 (0e150ed, 2023-07-21)"
   sodipodi:docname="drawing.svg"
   xmlns:inkscape="http://www.inkscape.org/namespaces/inkscape"
   xmlns:sodipodi="http://sodipodi.sourceforge.net/DTD/sodipodi-0.dtd"
   xmlns="http://www.w3.org/2000/svg"
   xmlns:svg="http://www.w3.org/2000/svg">
  <sodipodi:namedview
     id="namedview1"
     pagecolor="#ffffff"
     bordercolor="#000000"
     borderopacity="0.25"
     inkscape:showpageshadow="2"
     inkscape:pageopacity="0.0"
     inkscape:pagecheckerboard="0"
     inkscape:deskcolor="#d1d1d1"
     inkscape:document-units="mm"
     inkscape:zoom="1.4342733"
     inkscape:cx="256.57593"
     inkscape:cy="306.42696"
     inkscape:window-width="1499"
     inkscape:window-height="991"
     inkscape:window-x="26"
     inkscape:window-y="23"
     inkscape:window-maximized="0"
     inkscape:current-layer="layer1" />
  <defs
     id="defs1" />
  <g
     inkscape:label="Layer 1"
     inkscape:groupmode="layer"
     id="layer1">
    <path
       style="fill:#ffffff;fill-opacity:1;stroke:#000000;stroke-width:0.186;stroke-opacity:0.13481294"
       d="m 99.457276,36.254883 c 0.448286,-0.06847 1.401994,-0.128815 1.755904,0.04666 0.0413,0.02045 0.0615,0.06858 0.0922,0.102865 0.055,0.03501 0.10565,0.07806 0.16501,0.105026 0.0528,0.02397 0.11792,0.01643 0.16772,0.04612 0.22039,0.131352 0.42254,0.291184 0.63629,0.433078 0.31284,0.207671 0.64224,0.391329 0.94344,0.615566 0.30088,0.224007 0.26791,0.541041 0.54368,0.777161 0.34139,0.292298 1.61348,1.109146 1.94975,1.568733 0.13758,0.188034 0.0684,0.477938 0.10539,0.678979 0.0296,0.160771 0.28134,0.991518 0.31238,1.214202 0.0181,0.130191 0,0.262895 0,0.394345 0,0.08533 0.0241,0.174125 0,0.25599 -0.0308,0.104608 -0.11624,0.185526 -0.15926,0.285716 -0.0434,0.101012 -0.0645,0.210185 -0.0985,0.314719 -0.23171,0.712105 -0.0925,0.331941 -0.41056,1.017659 -0.0644,0.138784 -0.10368,0.291055 -0.18807,0.418666 -0.16971,0.256625 -0.39188,0.475157 -0.56927,0.726538 -0.31367,0.444513 -0.51609,0.955389 -0.88219,1.364086 -0.0926,0.103354 -0.41851,0.352012 -0.48099,0.40209 -0.16387,0.131326 -0.30632,0.288067 -0.47091,0.418486 -0.25242,0.200014 -0.53229,0.363024 -0.79085,0.555037 -0.0694,0.0515 -0.13656,0.105807 -0.20483,0.158711 -0.0725,0.09139 -0.12658,0.201202 -0.21762,0.274185 -0.10512,0.08427 -0.24334,0.116834 -0.35814,0.187354 -0.38052,0.233754 -0.76292,0.466161 -1.12484,0.7278 -0.0963,0.06963 -0.16001,0.179226 -0.258878,0.245181 -0.08373,0.05586 -0.189299,0.06956 -0.279591,0.114036 -0.08437,0.04156 -0.15296,0.116266 -0.243019,0.143399 -0.150067,0.04521 -0.317236,0.01754 -0.464963,0.0699 -0.183147,0.06491 -0.338704,0.19095 -0.513064,0.276707 -0.190196,0.09355 -0.389179,0.168381 -0.579898,0.260855 -0.190693,0.09246 -0.35319,0.258101 -0.561163,0.298865 -0.06417,0.01259 -0.131323,-0.0084 -0.196181,0 -0.878964,0.113263 0.573035,0.06607 -0.934611,-0.01315 -0.612331,-0.03218 -1.290354,0.05404 -1.862915,-0.216178 -0.660115,-0.311544 -0.765689,-0.623919 -1.280494,-1.050266 -0.135445,-0.11217 -0.295698,-0.194239 -0.42209,-0.316521 -0.141507,-0.136909 -0.24553,-0.3081 -0.37597,-0.455594 -0.13327,-0.150702 -0.283956,-0.285586 -0.4147,-0.438484 -0.11449,-0.133887 -0.194892,-0.296563 -0.319945,-0.420645 -1.290891,-1.28088 0.09751,0.299157 -0.919657,-0.807066 -0.170301,-0.185211 -0.219167,-0.435624 -0.340841,-0.643131 -0.05053,-0.08618 -0.136954,-0.147796 -0.186815,-0.234373 -0.09542,-0.165677 -0.159009,-0.347901 -0.246443,-0.517925 -0.05577,-0.108452 -0.134387,-0.204975 -0.182851,-0.316883 -0.08339,-0.192572 -0.06525,-0.415145 -0.115835,-0.61881 -0.180586,-0.727049 -0.03425,0.04637 -0.214376,-0.566746 -0.143197,-0.487423 -0.109667,-1.011462 -0.257794,-1.502439 -0.07843,-0.259972 -0.198239,-0.506463 -0.273283,-0.767432 -0.244689,-0.850897 -0.08704,-0.38531 -0.134572,-1.022342 -0.0077,-0.10342 -0.04174,-0.203647 -0.05062,-0.306975 -0.0301,-0.350242 0.04516,-0.759825 0.115115,-1.099624 0.112599,-0.546936 0.10731,-0.242411 0.305353,-0.854985 0.03697,-0.114366 0.02294,-0.243017 0.06954,-0.353811 0.03557,-0.08459 0.123177,-0.137578 0.170241,-0.216361 0.21704,-0.363318 0.373372,-0.779486 0.600072,-1.137817 0.08996,-0.142195 0.218279,-0.256685 0.315802,-0.393805 0.144486,-0.203148 0.279386,-0.413055 0.412178,-0.624033 0.04456,-0.07079 0.06825,-0.153964 0.116737,-0.222123 0.181747,-0.255517 0.269975,-0.253014 0.373269,-0.514324 0.210545,-0.532646 0.266184,-0.868029 0.759865,-1.203031 0.391218,-0.265475 0.206205,-0.07071 0.652859,-0.3385 0.136686,-0.08195 0.264967,-0.239774 0.412178,-0.307875 0.11175,-0.05169 0.238379,-0.06594 0.350211,-0.117456 0.224028,-0.103211 0.401111,-0.295463 0.629078,-0.38966 0.17163,-0.07092 0.358275,-0.09813 0.535761,-0.152768 0.105089,-0.03235 0.207772,-0.07206 0.311658,-0.108087 0.164295,-0.06503 0.324228,-0.142402 0.492884,-0.195101 0.154596,-0.0483 0.320222,-0.05608 0.473972,-0.107009 0.100978,-0.03345 0.187243,-0.101515 0.284633,-0.144298 0.611172,-0.268481 0.615691,-0.302961 1.101429,-0.397949 0.154128,-0.03014 0.616304,-0.04412 0.661866,-0.04702 1.115446,-0.07102 1.00135,-0.05747 1.985597,-0.05747 0.575721,0 1.198581,-0.05923 1.758961,0 2.82347,0.298453 0.16581,0.247706 2.20376,0.247706 1.25719,0 2.4862,0.356055 3.70565,0.615386 0.0457,0.0097 0.44116,0.03911 0.44839,0.04324 0.11998,0.06837 0.20248,0.267779 0.29364,0.35057 0.27973,0.254021 0.56817,0.49951 0.87102,0.725456 0.8212,0.612666 1.13797,0.840758 1.88075,1.205735"
       id="path15" />
    <rect
       style="fill:#ffffff;fill-opacity:1;stroke:#000000;stroke-width:0.186;stroke-opacity:1"
       id="rect1"
       width="54.301079"
       height="20.1651"
       x="25.735292"
       y="28.521107" />
    <text
       xml:space="preserve"
       style="font-size:7.60234px;font-family:sans-serif;-inkscape-font-specification:sans-serif;fill:#ffffff;fill-opacity:1;stroke:#000000;stroke-width:0.445365;stroke-opacity:1"
       x="35.949364"
       y="40.281837"
       id="text1"><tspan
         sodipodi:role="line"
         id="tspan1"
         style="stroke-width:0.445365"
         x="35.949364"
         y="40.281837">purchase</tspan></text>
    <rect
       style="fill:#ffffff;fill-opacity:1;stroke:#000000;stroke-width:0.202913;stroke-opacity:1"
       id="rect1-5"
       width="64.679733"
       height="20.148188"
       x="82.610886"
       y="57.58802" />
    <rect
       style="fill:#ffffff;fill-opacity:1;stroke:#000000;stroke-width:0.059006;stroke-opacity:1"
       id="rect1-5-0"
       width="26.055767"
       height="4.2293344"
       x="119.66442"
       y="72.22113" />
    <text
       xml:space="preserve"
       style="font-size:3.46502px;font-family:sans-serif;-inkscape-font-specification:sans-serif;fill:#ffffff;fill-opacity:1;stroke:#000000;stroke-width:0.20299;stroke-opacity:1"
       x="121.34209"
       y="62.028473"
       id="text1-3"><tspan
         sodipodi:role="line"
         id="tspan1-5"
         style="stroke-width:0.20299"
         x="121.34209"
         y="62.028473">1b23f4a7893b</tspan><tspan
         sodipodi:role="line"
         style="stroke-width:0.20299"
         x="121.34209"
         y="66.359749"
         id="tspan2">478d19234781</tspan><tspan
         sodipodi:role="line"
         style="stroke-width:0.20299"
         x="121.34209"
         y="70.691017"
         id="tspan3">29384a7e7</tspan></text>
    <text
       xml:space="preserve"
       style="font-size:3.46502px;font-family:sans-serif;-inkscape-font-specification:sans-serif;fill:#ffffff;fill-opacity:1;stroke:#000000;stroke-width:0.20299;stroke-opacity:1"
       x="108.7805"
       y="66.300537"
       id="text1-3-29"><tspan
         sodipodi:role="line"
         style="stroke-width:0.20299"
         x="108.7805"
         y="66.300537"
         id="tspan3-9">emf</tspan></text>
    <text
       xml:space="preserve"
       style="font-size:2.08166px;font-family:sans-serif;-inkscape-font-specification:sans-serif;fill:#ffffff;fill-opacity:1;stroke:#000000;stroke-width:0.121949;stroke-opacity:1"
       x="84.275208"
       y="76.341545"
       id="text1-3-22"><tspan
         sodipodi:role="line"
         style="stroke-width:0.121949"
         x="84.275208"
         y="76.341545"
         id="tspan3-7">scanning for payment status</tspan></text>
    <text
       xml:space="preserve"
       style="font-size:3.46502px;font-family:sans-serif;-inkscape-font-specification:sans-serif;fill:#ffffff;fill-opacity:1;stroke:#000000;stroke-width:0.20299;stroke-opacity:1"
       x="128.59474"
       y="75.034904"
       id="text1-3-2"><tspan
         sodipodi:role="line"
         style="stroke-width:0.20299"
         x="128.59474"
         y="75.034904"
         id="tspan3-3">copy</tspan></text>
    <path
       style="fill:#ffffff;fill-opacity:1;stroke:#000000;stroke-width:0.186;stroke-opacity:1"
       d="m 97.805601,63.327787 c -0.12551,-0.417078 -0.393171,-2.023271 -0.672589,-2.497238 -0.04988,-0.08461 -0.19354,-0.06348 -0.262922,-0.13299 -0.03072,-0.03077 0.02789,-0.09708 0,-0.130442 -0.02331,-0.02789 -0.07787,0.01868 -0.10904,0 -0.326562,-0.195784 -0.488849,-0.518097 -0.89118,-0.652206 -0.469157,-0.156385 -2.421361,0.04291 -2.859011,0.130442 -0.542099,0.108418 -1.150591,-0.110606 -1.692172,0 -0.09638,0.01969 -0.170235,0.101521 -0.263432,0.132988 -0.163817,0.05531 -0.348176,-0.02853 -0.518708,0 -0.698791,0.116922 -1.190387,0.691004 -1.740577,1.057799 -0.03576,0.02384 -0.09883,-0.03068 -0.128913,0 -0.09954,0.101507 -0.242816,0.882769 -0.268018,0.932963 -0.187967,0.374385 -0.702151,0.673139 -0.806595,1.090916 -0.203454,0.813816 -0.675106,1.603553 -0.956911,2.424888 -0.02822,0.08225 0.04856,0.188743 0,0.260882 -0.05472,0.08128 -0.207769,0.0498 -0.263429,0.130442 -0.147236,0.213305 0.08163,0.531559 0,0.777552 -0.03926,0.118322 -0.207428,0.154345 -0.262922,0.265978 -0.166235,0.334404 -0.0024,3.093609 0.262922,3.407783 0.532704,0.63105 0.681632,0.29909 1.407339,0.699085 0.423514,0.233431 0.66525,0.799213 1.06748,1.070028 0.313164,0.210846 0.805313,0.66318 1.075632,0.796914 0.07947,0.03932 0.186375,-0.03904 0.265978,0 0.03904,0.01916 -0.02947,0.09847 0,0.130442 0.253976,0.2755 1.176533,-0.003 1.450141,0.132991 0.05442,0.02705 0.07494,0.100986 0.128913,0.128912 0.135449,0.07008 2.035855,0.0515 2.155341,0 0.146135,-0.06299 0.25322,-0.196048 0.395401,-0.267507 1.761649,-0.885393 -0.396713,0.299657 1.396133,-0.456035 0.03662,-0.01545 -0.02871,-0.09175 0,-0.119232 0.181284,-0.173572 0.459478,-0.132218 0.656791,-0.26547 0.160242,-0.108214 0.259424,-0.289094 0.410178,-0.410175 0.07711,-0.06193 0.195202,-0.06289 0.26547,-0.13248 0.05205,-0.05155 0.6267,-1.041268 0.637428,-1.060347 0.26392,-0.469304 1.170409,-1.985139 1.170409,-2.450872"
       id="path4" />
    <path
       style="fill:#ffffff;fill-opacity:1;stroke:#000000;stroke-width:0.186;stroke-opacity:1"
       d="m 96.671372,68.827221 c 0.589042,-0.6286 1.665116,-1.348788 1.993308,-2.182858 0.04109,-0.104434 0.08483,-0.562001 0.331708,-0.446863 0.04684,0.02185 5.29e-4,0.335497 -0.161015,0.600745 -0.126595,0.207965 -0.327128,0.365244 -0.449411,0.575775 -0.301508,0.519108 -0.30227,0.952617 -0.437181,1.497529 -0.07642,0.30866 0.497099,0.840147 0.790799,0.912582 0.34026,0.08392 0.537009,-0.04155 0.880991,0.13044"
       id="path5" />
    <rect
       style="fill:#ffffff;fill-opacity:1;stroke:#000000;stroke-width:0.202913;stroke-opacity:1"
       id="rect1-5-4"
       width="64.679733"
       height="20.148188"
       x="82.90802"
       y="83.942589" />
    <text
       xml:space="preserve"
       style="font-size:3.46502px;font-family:sans-serif;-inkscape-font-specification:sans-serif;fill:#ffffff;fill-opacity:1;stroke:#000000;stroke-width:0.20299;stroke-opacity:1"
       x="97.905548"
       y="90.928566"
       id="text1-3-29-0"><tspan
         sodipodi:role="line"
         style="stroke-width:0.20299"
         x="97.905548"
         y="90.928566"
         id="tspan3-9-6">payment confirmed</tspan></text>
    <rect
       style="fill:#ffffff;fill-opacity:1;stroke:#000000;stroke-width:0.059006;stroke-opacity:1"
       id="rect1-5-0-6"
       width="26.055767"
       height="4.2293344"
       x="100.31148"
       y="96.101006" />
    <text
       xml:space="preserve"
       style="font-size:3.46502px;font-family:sans-serif;-inkscape-font-specification:sans-serif;fill:#ffffff;fill-opacity:1;stroke:#000000;stroke-width:0.20299;stroke-opacity:1"
       x="105.68038"
       y="99.388138"
       id="text1-3-2-5"><tspan
         sodipodi:role="line"
         style="stroke-width:0.20299"
         x="105.68038"
         y="99.388138"
         id="tspan3-3-6">download</tspan></text>
    <path
       style="fill:#ffffff;fill-opacity:1;stroke:#000000;stroke-width:0.186;stroke-opacity:1"
       d="m 97.222436,40.645246 c -0.697013,-0.128627 -0.959731,0.265491 -1.481225,0.608896 -0.14737,0.09704 -0.329359,0.135732 -0.472085,0.239483 -0.124826,0.09074 -0.871361,0.772575 -0.999456,0.931942 -0.270219,0.33619 0.09605,-0.0614 -0.06624,0.263175 -0.0097,0.01945 -0.05517,-0.01929 -0.06522,0 -0.03203,0.06143 -0.132231,0.840081 -0.131715,0.889397 0.0039,0.375198 0.313992,0.708089 0.508262,0.998694 0.117364,0.175561 0.140854,0.451993 0.264451,0.607113 0.0498,0.0625 0.137766,0.08222 0.199483,0.132987 0.305009,0.250923 0.545952,0.633516 0.977802,0.687367 0.205324,0.02561 1.790306,0.05651 1.963499,0 0.575403,-0.187754 0.179488,-0.08931 0.625203,-0.421897 0.776388,-0.57934 -0.167347,0.256971 0.490683,-0.287123 0.487045,-0.402717 0.0026,0.0048 0.270309,-0.398458 0.09061,-0.136493 0.256989,-0.21251 0.343172,-0.351837 0.257432,-0.416163 0.208344,-0.375576 0.290947,-0.792837 0.04784,-0.241644 0.167684,-0.638972 0.0056,-0.879716 -0.08169,-0.145034 -0.25603,-0.213929 -0.348777,-0.350052 -0.12383,-0.181745 -0.105423,-0.295441 -0.279225,-0.415528 -0.153699,-0.106193 -0.466781,-0.187846 -0.626732,-0.343426 -0.01588,-0.01545 0.01595,-0.05112 0,-0.0665 -0.121261,-0.116883 -0.438073,-0.1811 -0.451704,-0.195919 -0.06582,-0.07155 -0.06094,-0.192897 -0.130443,-0.260882 -0.154305,-0.150932 -0.302731,-0.117197 -0.466225,-0.197956 -0.09607,-0.04745 -0.04714,-0.120362 -0.126365,-0.194133 -0.08713,-0.08113 -0.196003,-0.135196 -0.294002,-0.202795 z"
       id="path6" />
    <path
       style="fill:#ffffff;fill-opacity:1;stroke:#000000;stroke-width:0.0153877;stroke-opacity:1"
       d="m 96.75129,35.649171 c -0.05441,0.01535 -0.156202,0.04597 -0.207313,0.05058 -0.05669,0.0051 -0.114054,-0.0049 -0.170767,0 -0.05438,0.0047 -0.107119,0.02153 -0.161238,0.02871 -0.07032,0.0093 -0.430067,0.03162 -0.438103,0.03183 -0.145493,0.0038 -0.291435,-0.01004 -0.436629,0 -0.151585,0.01048 -0.301317,0.03954 -0.45168,0.06142 -0.03638,0.0053 -0.07704,-4.4e-5 -0.108672,0.01867 -0.03008,0.01779 -0.08476,0.171209 -0.07626,0.205204 0.0047,0.01832 0.02938,0.0082 0.04002,0.01079 0.02896,0.0072 0.05602,0.02221 0.08557,0.02639 0.07988,0.01128 0.194138,0.0034 0.273031,-0.01197 0.02934,-0.0057 0.0567,-0.02026 0.08633,-0.0242 0.263157,-0.03492 -0.103706,0.05035 0.225772,-0.01206 0.04356,-0.0082 0.08473,-0.02617 0.127771,-0.03671 0.122104,-0.02991 0.04277,0.0062 0.177258,-0.04401 0.0166,-0.0062 0.03022,-0.01967 0.04734,-0.0242 0.10212,-0.02699 0.222657,-0.02442 0.327407,-0.03313 0.194291,-0.01617 0.38619,-0.02394 0.581092,-0.02394 0.03964,0 0.06749,-0.01506 0.109642,-0.01079 0.04398,0.0045 0.250453,0.05338 0.291196,0.01977 0.0072,-0.0059 0.0014,-0.102566 0,-0.106607 -0.0073,-0.01808 -0.04351,-0.03301 -0.0545,-0.04388 -0.0023,-0.0024 0.0019,-0.0075 0,-0.01037 -0.0054,-0.0077 -0.01884,9.8e-4 -0.02817,0 -0.106886,-0.01099 -0.209145,-0.0016 -0.311349,-0.03271"
       id="path9" />
    <path
       style="fill:#ffffff;fill-opacity:1;stroke:#000000;stroke-width:0.0153877;stroke-opacity:1"
       d="m 95.325184,37.085689 c -0.215349,0.03472 -0.432082,0.06175 -0.64605,0.104162 -0.04944,0.0098 -0.09426,0.03578 -0.141977,0.05202 -0.02178,0.0074 -0.05922,-6.5e-5 -0.06534,0.02209 -0.01152,0.04174 0.277583,0.249386 0.293389,0.252038 0.01399,0.0023 0.02836,-6.07e-4 0.04253,0 0.101378,0.0043 0.202621,0.01757 0.304055,0.0148 0.08176,-0.0022 0.164316,-0.0095 0.243564,-0.02976 0.102376,-0.02614 0.199688,-0.101503 0.302623,-0.132785 0.168328,-0.05115 0.103915,-0.01918 0.307474,-0.0438 0.04123,-0.005 0.08121,-0.01747 0.122244,-0.02378 0.02873,-0.0044 0.05831,0.0034 0.08717,0 0.01301,-0.0015 0.02518,-0.0072 0.03778,-0.01079 0.04932,-0.0036 0.09852,-0.0095 0.14796,-0.01096 0.07676,-0.0022 0.153846,-0.0064 0.230371,0 0.06804,0.0057 0.134295,0.02482 0.201664,0.03596 0.137201,0.02267 0.275339,0.03982 0.413697,0.05383 0.100012,0.01013 0.272639,0.04079 0.390975,0.0074 0.01138,-0.0037 0.02271,-0.0073 0.03409,-0.011 0,-0.0035 -0.0033,-0.0091 0,-0.01067 0.0063,-0.0032 0.01544,0.0041 0.02127,0 0.02514,-0.01742 0.0093,-0.01863 0.01329,-0.03474 0.0028,-0.01116 0.0057,-0.02247 0.01077,-0.03275 0.0023,-0.0047 0.01101,-0.0058 0.01101,-0.011 1.63e-4,-0.04655 -0.01852,-0.118448 -0.06584,-0.137253 -0.133326,-0.05296 -0.340242,-0.0623 -0.480852,-0.0623 -0.456618,0 -0.02052,0.01051 -0.301401,-0.01615 -0.02285,-0.0022 -0.04608,0.0025 -0.06892,0 -0.01138,-0.0012 -0.02122,-0.0096 -0.0326,-0.011 -0.0402,-0.0051 -0.08127,0.004 -0.121614,0 -0.01884,-0.0019 -0.03703,-0.008 -0.05552,-0.01197 -0.03932,-0.0044 -0.07852,-0.01 -0.117944,-0.01319 -0.161402,-0.01319 -0.317268,-0.01623 -0.478404,-0.01623 -0.06739,0 -0.130279,0.01819 -0.197364,0.0239 -0.05446,0.0046 -0.114535,0.0014 -0.16815,0.01096 -0.02915,0.0052 -0.05597,0.02058 -0.08524,0.02517 -0.06244,0.0098 -0.126241,0.0086 -0.188764,0.01779 -0.05715,0.0084 -0.116475,0.01552 -0.168407,0.0408 -0.0047,0.0022 -0.006,0.0092 -0.01077,0.01079 -0.05109,0.01719 -0.112907,0.01096 -0.166546,0.01096"
       id="path10" />
    <path
       style="fill:#ffffff;fill-opacity:1;stroke:#000000;stroke-width:0.0153877;stroke-opacity:1"
       d="m 95.145355,36.116151 c -0.04707,0.02427 -0.04734,0.02192 -0.08566,0.04941 -0.02677,0.01919 -0.05609,0.03491 -0.08131,0.05606 -0.06036,0.05061 -0.0048,0.02309 -0.06614,0.05796 -0.07512,0.04266 -0.161905,0.04763 -0.23745,0.09375 -0.01884,0.0115 -0.03017,0.03235 -0.04671,0.04696 -0.03017,0.02663 -0.08208,0.05656 -0.106648,0.09329 -0.01702,0.02549 -0.02593,0.053 -0.04473,0.07828 -0.01385,0.01868 -0.02738,8.4e-4 -0.03171,0.0317 -0.0028,0.01844 0.0028,0.03747 0,0.05585 -9.33e-4,0.005 -0.01077,0.0057 -0.01077,0.01079 0,0.01014 0.04095,0.07568 0.04379,0.08705 0.0028,0.01054 -0.0028,0.02205 0,0.03259 0.0052,0.02077 0.104027,0.05053 0.126502,0.0575 0.03652,0.01132 0.09509,0.02518 0.123848,0.05375 0.0058,0.0057 0.0033,0.01866 0.01101,0.02179 0.0048,0.002 0.155493,0.03429 0.164526,0.04287 0.0073,0.0069 0.0069,0.02027 0.02145,0.02833 0.01511,0.0083 0.03302,0.01176 0.04692,0.022 0.02229,0.01644 0.03442,0.04554 0.05872,0.05885 0.02057,0.01127 0.08828,0 0.117188,0 0.06495,0 0.105319,-3.56e-4 0.168235,-0.01104 0.02481,-0.0042 0.06491,0.01083 0.08675,0 0.08289,-0.04109 -0.03064,-0.0058 0.09114,-0.0368 0.04903,-0.01246 0.101327,-0.01353 0.148254,-0.03242 0.0075,-0.003 0.0037,-0.0182 0.01077,-0.02179 0.0091,-0.0045 0.128647,-0.0069 0.153398,-0.0156 0.04682,-0.01648 0.142574,-0.03751 0.18598,-0.06062 0.02341,-0.01248 0.03684,-0.03652 0.06547,-0.04376 0.04449,-0.01124 0.102012,-0.02898 0.141552,-0.05674 0.0083,-0.0058 0.0132,-0.01581 0.02159,-0.02158 0.0028,-0.0018 0.0081,0.0028 0.0097,0 0.0098,-0.01672 0.01105,-0.03779 0.02187,-0.05387 0.01483,-0.02203 0.03307,-0.01153 0.04412,-0.04506 0.0066,-0.01985 -0.0095,-0.04411 0,-0.06273 0.02173,-0.04251 0.05441,-0.07315 0.06943,-0.120223 0.0076,-0.02393 0.0019,-0.05493 0.0099,-0.08047 0.0042,-0.014 0.01973,-0.02827 0.01334,-0.04536 -0.01772,-0.04712 -0.08211,-0.06101 -0.119292,-0.07748 -0.02164,-0.0096 -0.03442,-0.03438 -0.05645,-0.04312 -0.07739,-0.03075 -0.0403,0.0038 -0.114321,-0.01092 -0.02066,-0.0077 -0.04132,-0.01537 -0.06197,-0.02306 -0.0033,-0.0035 -0.0058,-0.0086 -0.0104,-0.01041 -0.04775,-0.01885 -0.03279,-0.0068 -0.07567,-0.01079 -0.03213,-0.003 -0.06388,-0.0096 -0.09607,-0.01185 -0.02467,-0.0017 -0.04965,0.0033 -0.07415,0 -0.0173,-0.0023 -0.03596,-0.02054 -0.05724,-0.02276 -0.03815,-0.004 -0.07724,0.0063 -0.11508,0 -0.03834,-0.0064 -0.0082,-0.0093 -0.03237,-0.02158 -0.0067,-0.0034 -0.0749,-0.01073 -0.0755,-0.01079 -0.03405,-0.0035 -0.06895,-0.0056 -0.102726,0 -0.01604,0.0027 -0.0291,0.01668 -0.04734,0.01079 -0.02724,-0.0088 -0.02164,-0.0151 -0.05434,-0.02053 -0.06181,-0.01026 -0.06965,9.8e-4 -0.151417,-0.01821 z"
       id="path11" />
    <path
       style="fill:#ffffff;fill-opacity:1;stroke:#000000;stroke-width:0.0153877;stroke-opacity:1"
       d="m 97.172448,35.821117 c 0.184101,0 0.368197,0 0.552297,0 0.0085,0 -0.01707,0 -0.0256,0 -0.04421,0 -0.08849,-0.0026 -0.132616,0 -0.229751,0.01368 -0.04179,0.01315 -0.09902,0.01315 -0.0033,0 0.0066,0 0.0098,0 0.01782,0 0.03605,0.0039 0.05341,0 0.01651,-0.0037 0.02994,-0.01591 0.04575,-0.022 0.06475,-0.02499 0.135,-0.04477 0.204533,-0.04477 0.0019,0 -0.0033,0 -0.0051,0 -0.01898,0 -0.0381,-0.002 -0.05699,0 -0.02402,0.0025 -0.04737,0.0094 -0.0712,0.01319 -0.07354,0.01181 -0.204794,0 -0.259454,0 -0.04585,0 -0.09248,-0.0084 -0.137551,0 -0.02887,0.0054 -0.049,0.04278 -0.07828,0.04043 -0.03041,-0.0024 -0.04687,-0.04051 -0.07482,-0.05273 -0.06646,-0.02907 -0.07682,-0.02816 -0.121152,-0.02816 -0.0028,0 0.0055,9.33e-4 0.008,0 0.03726,-0.01416 0.0028,-0.01079 0.04197,-0.01079 0.02901,0 0.102306,-0.03059 0.127347,-0.01113 0.0059,0.0046 -0.0023,0.04089 0,0.04856 0.0055,0.01831 0.01241,0.03617 0.01866,0.05425 z"
       id="path12" />
    <path
       style="fill:#ffffff;fill-opacity:1;stroke:#000000;stroke-width:0.0153877;stroke-opacity:1"
       d="m 97.819384,37.338317 c 0.145745,-0.02095 0.293197,-0.01831 0.438607,-0.04034 0.03423,-0.0052 0.135415,-0.0062 0.172198,-0.03946 0.0023,-0.0022 -0.0066,0 -0.0099,0 -0.04333,0 -0.0867,0 -0.130042,0 -0.0756,0 -0.151193,0 -0.226789,0 -0.101187,0 0.17073,-0.08111 0.171438,-0.08144 0.0065,-0.003 -0.01213,0.009 -0.01926,0.0097 -0.06293,0.0059 -0.130621,0 -0.194161,0 -0.02164,0 -0.04379,0.0098 -0.06416,0.01994 -0.0091,0.0046 -0.02766,-0.0016 -0.03806,0 -0.02327,0.0035 -0.04617,0.01006 -0.06964,0.01193 -0.06064,0.0048 -0.123414,-0.0031 -0.171564,0.04376 -0.02598,0.02527 0.04216,0.03606 0.04281,0.03646 0.01637,0.0098 -0.0059,0.03907 0,0.0572 0.0037,0.01125 0.05891,-0.0056 0.09847,-0.01775 z"
       id="path13" />
    <path
       style="fill:#ffffff;fill-opacity:1;stroke:#000000;stroke-width:0.0153877;stroke-opacity:1"
       d="m 94.552716,36.51421 c -0.118579,-0.02154 -0.02421,0.05382 -0.04491,0.0739 -0.01278,0.01242 -0.03596,0.01128 -0.04725,0.02508 -0.0174,0.02124 -0.0104,0.05447 -0.02201,0.07933 0.0042,0.02638 -0.01861,0.0058 -0.02379,0.01324 -0.0037,0.0051 0.0033,0.01331 0,0.01863 -0.05885,0.09742 -0.04711,0.03099 -0.06344,0.113098 -0.01,0.05016 0.06694,0.04018 0.08945,0.04215 0.02211,0.002 0.0437,0.0081 0.06576,0.01079 0.04925,0.0061 0.100833,-0.0065 0.150022,0 0.0095,0.0013 0.01707,0.0104 0.02663,0.01079 0.0033,1.33e-4 -0.0028,-0.0083 0,-0.0097 0.0063,-0.0029 0.01395,0 0.02094,0 0.01138,-0.01173 0.02108,-0.02535 0.03414,-0.0352 0.02887,-0.02177 0.07789,-0.03282 0.0999,-0.06412 0.02826,-0.0402 -0.01441,-0.0089 0.04496,-0.07175 0.199692,-0.21152 -0.05312,0.0911 0.09598,-0.09615 0.0049,-0.0061 0.01777,-0.01725 0.01077,-0.02057 -0.0062,-0.0029 -0.01409,0.0022 -0.02057,0 -0.01819,-0.0063 -0.02859,-0.0265 -0.04575,-0.03532 -0.02346,-0.01209 -0.08508,-0.03682 -0.116051,-0.0443 -0.04603,-0.01111 -0.09861,-0.01042 -0.143282,-0.02159 -0.01777,-0.0044 -0.02477,-0.03383 -0.05075,-0.02158 -0.02089,0.0099 -0.03941,0.02455 -0.06083,0.03326 -0.08135,0.03312 -0.0779,-0.005 -0.0779,0.03402"
       id="path14" />
  </g>
</svg>
